<?xml version="1.0" standalone="yes"?>

<svg version="1.1" viewBox="0.0 0.0 287.81102362204723 212.21259842519686" fill="none" stroke="none" stroke-linecap="square" stroke-miterlimit="10" xmlns="http://www.w3.org/2000/svg" xmlns:xlink="http://www.w3.org/1999/xlink"><clipPath id="p.0"><path d="m0 0l287.81104 0l0 212.2126l-287.81104 0l0 -212.2126z" clip-rule="nonzero"></path></clipPath><g clip-path="url(#p.0)"><path fill="#000000" fill-opacity="0.0" d="m0 0l287.81104 0l0 212.2126l-287.81104 0z" fill-rule="evenodd"></path><path fill="#000000" fill-opacity="0.0" d="m-16.0 -57.957874l343.77954 0l0 272.59842l-343.77954 0z" fill-rule="evenodd"></path><path fill="#87e112" d="m48.46875 209.18275q-17.609375 0 -25.34375 -9.203125q-7.71875 -9.203125 -8.0 -27.609375l0 -100.515625l-16.265625 0l0 -18.937504l16.265625 0l0 -45.0625l28.546875 0l0 45.0625l24.796875 0l0 18.937504l-24.796875 0l0 98.65625q0 9.328125 2.921875 13.0625q2.9375 3.734375 11.203125 3.734375q5.328125 0 10.40625 -0.796875l0 21.0625q-10.671875 1.609375 -19.734375 1.609375zm68.78635 0q-8.796875 0 -15.859375 -5.0625q-7.0625 -5.078125 -11.0625 -13.34375q-4.0 -8.265625 -4.0 -17.328125q0 -18.140625 7.734375 -29.46875q7.734375 -11.328125 19.59375 -17.859375q11.859375 -6.546875 33.46875 -15.34375l0 -10.9375q0 -15.1875 -3.078125 -21.453125q-3.0625 -6.265625 -12.390625 -6.265625q-16.265625 0 -16.265625 21.859375l0 7.734375l-28.265625 -1.0625l0.265625 -5.609375q1.328125 -23.1875 12.921875 -33.718754q11.609375 -10.546875 33.203125 -10.546875q22.140625 0 32.140625 12.140625q10.0 12.125004 10.0 36.656254l0 70.40625q0 17.328125 2.671875 37.0625l-26.140625 0q-2.9375 -15.203125 -3.734375 -22.671875q-3.203125 10.40625 -11.078125 17.609375q-7.859375 7.203125 -20.125 7.203125zm11.203125 -24.546875q5.609375 0 10.9375 -4.390625q5.328125 -4.40625 7.734375 -8.40625l0 -43.734375q-11.734375 6.9375 -17.609375 10.8125q-5.859375 3.859375 -10.265625 10.390625q-4.390625 6.53125 -4.390625 15.34375q0 9.59375 3.46875 14.796875q3.46875 5.1875 10.125 5.1875zm116.798645 24.546875q-18.125 0 -28.0 -7.328125q-9.859375 -7.34375 -13.46875 -20.546875q-3.59375 -13.203125 -3.59375 -33.46875l0 -35.453125q0 -20.8125 3.59375 -34.140625q3.609375 -13.328125 13.46875 -20.390629q9.875 -7.078125 28.0 -7.078125q16.53125 0 25.734375 5.34375q9.203125 5.328125 12.796875 15.859379q3.59375 10.53125 3.59375 27.328125l0 9.078125l-25.859375 0l0 -9.34375q0 -15.1875 -3.34375 -21.1875q-3.328125 -6.0 -12.65625 -6.0q-7.203125 0 -10.671875 3.203125q-3.453125 3.1875 -4.796875 10.390625q-1.328125 7.203125 -1.328125 21.0625l0 48.53125q0 13.328125 1.59375 20.40625q1.609375 7.0625 5.203125 9.859375q3.59375 2.796875 10.265625 2.796875q9.875 0 12.796875 -6.53125q2.9375 -6.53125 2.9375 -20.125l0 -12.53125l25.859375 0l0 10.65625q0 25.0625 -9.203125 37.34375q-9.1875 12.265625 -32.921875 12.265625z" fill-rule="nonzero"></path></g></svg>

