<?xml version="1.0" standalone="yes"?>

<svg version="1.1" viewBox="0.0 0.0 238.11286089238845 211.53543307086613" fill="none" stroke="none" stroke-linecap="square" stroke-miterlimit="10" xmlns="http://www.w3.org/2000/svg" xmlns:xlink="http://www.w3.org/1999/xlink"><clipPath id="p.0"><path d="m0 0l238.11285 0l0 211.53543l-238.11285 0l0 -211.53543z" clip-rule="nonzero"></path></clipPath><g clip-path="url(#p.0)"><path fill="#000000" fill-opacity="0.0" d="m0 0l238.11285 0l0 211.53543l-238.11285 0z" fill-rule="evenodd"></path><path fill="#000000" fill-opacity="0.0" d="m-16.0 -57.957874l343.77954 0l0 272.59842l-343.77954 0z" fill-rule="evenodd"></path><path fill="#ffd966" d="m48.46875 209.18275q-17.609375 0 -25.34375 -9.203125q-7.71875 -9.203125 -8.0 -27.609375l0 -100.515625l-16.265625 0l0 -18.937504l16.265625 0l0 -45.0625l28.546875 0l0 45.0625l24.796875 0l0 18.937504l-24.796875 0l0 98.65625q0 9.328125 2.921875 13.0625q2.9375 3.734375 11.203125 3.734375q5.328125 0 10.40625 -0.796875l0 21.0625q-10.671875 1.609375 -19.734375 1.609375zm42.92697 -209.0625l28.53125 0l0 29.859375l-28.53125 0l0 -29.859375zm0 52.796875l28.53125 0l0 154.125l-28.53125 0l0 -154.125zm101.32988 156.26562q-18.125 0 -28.0 -7.328125q-9.859375 -7.34375 -13.46875 -20.546875q-3.59375 -13.203125 -3.59375 -33.46875l0 -35.453125q0 -20.8125 3.59375 -34.140625q3.609375 -13.328125 13.46875 -20.390629q9.875 -7.078125 28.0 -7.078125q16.53125 0 25.734375 5.34375q9.203125 5.328125 12.796875 15.859379q3.59375 10.53125 3.59375 27.328125l0 9.078125l-25.859375 0l0 -9.34375q0 -15.1875 -3.34375 -21.1875q-3.328125 -6.0 -12.65625 -6.0q-7.203125 0 -10.671875 3.203125q-3.453125 3.1875 -4.796875 10.390625q-1.328125 7.203125 -1.328125 21.0625l0 48.53125q0 13.328125 1.59375 20.40625q1.609375 7.0625 5.203125 9.859375q3.59375 2.796875 10.265625 2.796875q9.875 0 12.796875 -6.53125q2.9375 -6.53125 2.9375 -20.125l0 -12.53125l25.859375 0l0 10.65625q0 25.0625 -9.203125 37.34375q-9.1875 12.265625 -32.921875 12.265625z" fill-rule="nonzero"></path></g></svg>

