<?xml version="1.0" standalone="yes"?>

<svg version="1.1" viewBox="0.0 0.0 290.62992125984255 204.74540682414698" fill="none" stroke="none" stroke-linecap="square" stroke-miterlimit="10" xmlns="http://www.w3.org/2000/svg" xmlns:xlink="http://www.w3.org/1999/xlink"><clipPath id="p.0"><path d="m0 0l290.6299 0l0 204.7454l-290.6299 0l0 -204.7454z" clip-rule="nonzero"></path></clipPath><g clip-path="url(#p.0)"><path fill="#000000" fill-opacity="0.0" d="m0 0l290.6299 0l0 204.7454l-290.6299 0z" fill-rule="evenodd"></path><path fill="#000000" fill-opacity="0.0" d="m-16.0 -63.25367l343.77954 0l0 317.88977l-343.77954 0z" fill-rule="evenodd"></path><path fill="#ec4444" d="m48.46875 203.88696q-17.609375 0 -25.34375 -9.203125q-7.71875 -9.203125 -8.0 -27.609375l0 -100.51563l-16.265625 0l0 -18.9375l16.265625 0l0 -45.0625l28.546875 0l0 45.0625l24.796875 0l0 18.9375l-24.796875 0l0 98.65626q0 9.328125 2.921875 13.0625q2.9375 3.734375 11.203125 3.734375q5.328125 0 10.40625 -0.796875l0 21.0625q-10.671875 1.609375 -19.734375 1.609375zm83.1926 0q-24.53125 0 -34.796875 -14.53125q-10.265625 -14.546875 -10.265625 -42.28125l0 -44.796883q0 -27.71875 10.265625 -42.25q10.265625 -14.546875 34.796875 -14.546875q24.265625 0 34.53125 14.546875q10.265625 14.53125 10.265625 42.25l0 44.796883q0 27.734375 -10.265625 42.28125q-10.265625 14.53125 -34.53125 14.53125zm0 -21.078125q7.734375 0 11.203125 -4.53125q3.46875 -4.53125 4.265625 -11.1875q0.796875 -6.671875 0.796875 -18.140625l0 -48.265633q0 -11.46875 -0.796875 -18.265625q-0.796875 -6.796875 -4.265625 -11.328125q-3.46875 -4.53125 -11.203125 -4.53125q-7.734375 0 -11.34375 4.53125q-3.59375 4.53125 -4.390625 11.328125q-0.796875 6.796875 -0.796875 18.265625l0 48.265633q0 11.46875 0.796875 18.140625q0.796875 6.65625 4.390625 11.1875q3.609375 4.53125 11.34375 4.53125zm113.593475 21.078125q-17.85939 0 -27.73439 -6.796875q-9.859375 -6.8125 -13.859375 -20.140625q-4.0 -13.328125 -4.0 -34.671875l0 -35.187508q0 -32.0 10.0 -46.796875q10.0 -14.8125 35.593765 -14.8125q18.671875 0 28.125 7.734375q9.46875 7.734375 12.53125 21.734375q3.078125 14.0 3.078125 37.734375l0 12.53125l-60.79689 0l0 20.531258q0 13.875 0.65625 20.8125q0.671875 6.921875 4.265625 11.59375q3.609375 4.65625 11.875015 4.65625q9.328125 0 12.65625 -6.265625q3.34375 -6.265625 3.34375 -19.0625l0 -9.328125l27.734375 0l0 5.859375q0 24.265625 -10.40625 37.078125q-10.390625 12.796875 -33.0625 12.796875zm15.734375 -94.14063l0 -13.859375q0 -15.734375 -3.078125 -22.53125q-3.0625 -6.796875 -12.921875 -6.796875q-6.9375153 0 -10.531265 3.203125q-3.59375 3.1875 -4.9375 10.53125q-1.328125 7.328125 -1.328125 21.1875l0 8.265625l32.79689 0z" fill-rule="nonzero"></path></g></svg>

